<svg width="360" height="120" viewBox="0 0 360 120" fill="none" xmlns="http://www.w3.org/2000/svg" role="img" aria-labelledby="title desc">
  <title id="title">Spuncast logo</title>
  <desc id="desc">Abstract red circular mark with the word Spuncast and address</desc>
  <path d="M60 18c-23.196 0-42 18.804-42 42s18.804 42 42 42c20.16 0 36.95-13.722 41.104-32H82.632c-3.786 8.536-12.304 14-22.632 14-13.255 0-24-10.745-24-24s10.745-24 24-24c10.328 0 18.846 5.464 22.632 14h18.472C96.95 31.722 80.16 18 60 18z" fill="#E41E2B"/>
  <path d="M101 33c-1.67 16.848-15.694 30-32.875 30-5.602 0-10.884-1.367-15.51-3.79L48.5 71.57C54.675 75.12 61.999 77 69.875 77c23.196 0 42-18.804 42-42 0-0.685-0.017-1.366-0.05-2.044H101z" fill="#C5131A"/>
  <text x="128" y="66" font-family="'Segoe UI', 'Helvetica Neue', Arial, sans-serif" font-weight="700" font-size="46" fill="#003865">SPUNCAST</text>
  <text x="128" y="92" font-family="'Segoe UI', 'Helvetica Neue', Arial, sans-serif" font-weight="500" font-size="16" fill="#003865">W6499 Rhine Road, Watertown, WI 53098</text>
</svg>
